<!DOCTYPE svg PUBLIC "-//W3C//DTD SVG 1.1//EN" "http://www.w3.org/Graphics/SVG/1.1/DTD/svg11.dtd">
<!-- Uploaded to: SVG Repo, www.svgrepo.com, Transformed by: SVG Repo Mixer Tools -->
<svg version="1.1" id="Icons" xmlns="http://www.w3.org/2000/svg" xmlns:xlink="http://www.w3.org/1999/xlink" viewBox="0 0 32 32" xml:space="preserve" width="64px" height="64px" fill="#ffffff" transform="rotate(270)">
<g id="SVGRepo_bgCarrier" stroke-width="0"/>
<g id="SVGRepo_tracerCarrier" stroke-linecap="round" stroke-linejoin="round"/>
<g id="SVGRepo_iconCarrier"> <style type="text/css"> .st0{fill:#ffbc07FFFFFF;} .st1{fill:#ffbc073A559F;} .st2{fill:#ffbc07F4F4F4;} .st3{fill:#ffbc07FF0084;} .st4{fill:#ffbc070063DB;} .st5{fill:#ffbc0700ACED;} .st6{fill:#ffbc07FFEC06;} .st7{fill:#ffbc07FF0000;} .st8{fill:#ffbc07;} .st9{fill:#ffbc070088FF;} .st10{fill:#ffbc07314358;} .st11{fill:#ffbc07EE6996;} .st12{fill:#ffbc0701AEF3;} .st13{fill:#ffbc07FFFEFF;} .st14{fill:#ffbc07F06A35;} .st15{fill:#ffbc0700ADEF;} .st16{fill:#ffbc071769FF;} .st17{fill:#ffbc071AB7EA;} .st18{fill:#ffbc076001D1;} .st19{fill:#ffbc07E41214;} .st20{fill:#ffbc0705CE78;} .st21{fill:#ffbc077B519C;} .st22{fill:#ffbc07FF4500;} .st23{fill:#ffbc0700F076;} .st24{fill:#ffbc07FFC900;} .st25{fill:#ffbc0700D6FF;} .st26{fill:#ffbc07FF3A44;} .st27{fill:#ffbc07FF6A36;} .st28{fill:#ffbc070061FE;} .st29{fill:#ffbc07F7981C;} .st30{fill:#ffbc07EE1B22;} .st31{fill:#ffbc07EF3561;} .st32{fill:none;stroke:#ffbc07FFFFFF;stroke-width:2;stroke-miterlimit:10;} .st33{fill:#ffbc070097D3;} .st34{fill:#ffbc0701308A;} .st35{fill:#ffbc07019CDE;} .st36{fill:#ffbc07FFD049;} .st37{fill:#ffbc0716A05D;} .st38{fill:#ffbc074486F4;} .st39{fill:none;} .st40{fill:#ffbc0734A853;} .st41{fill:#ffbc074285F4;} .st42{fill:#ffbc07FBBC05;} .st43{fill:#ffbc07EA4335;} </style> <path class="st8" d="M17,0C8.7,0,2,6.7,2,15c0,3.4,1.1,6.6,3.2,9.2l-2.1,6.4c-0.1,0.4,0,0.8,0.3,1.1C3.5,31.9,3.8,32,4,32 c0.1,0,0.3,0,0.4-0.1l6.9-3.1C13.1,29.6,15,30,17,30c8.3,0,15-6.7,15-15S25.3,0,17,0z"/> <path class="st0" d="M25.7,20.5c-0.4,1.2-1.9,2.2-3.2,2.4C22.2,23,21.9,23,21.5,23c-0.8,0-2-0.2-4.1-1.1c-2.4-1-4.8-3.1-6.7-5.8 L10.7,16C10.1,15.1,9,13.4,9,11.6c0-2.2,1.1-3.3,1.5-3.8c0.5-0.5,1.2-0.8,2-0.8c0.2,0,0.3,0,0.5,0c0.7,0,1.2,0.2,1.7,1.2l0.4,0.8 c0.3,0.8,0.7,1.7,0.8,1.8c0.3,0.6,0.3,1.1,0,1.6c-0.1,0.3-0.3,0.5-0.5,0.7c-0.1,0.2-0.2,0.3-0.3,0.3c-0.1,0.1-0.1,0.1-0.2,0.2 c0.3,0.5,0.9,1.4,1.7,2.1c1.2,1.1,2.1,1.4,2.6,1.6l0,0c0.2-0.2,0.4-0.6,0.7-0.9l0.1-0.2c0.5-0.7,1.3-0.9,2.1-0.6 c0.4,0.2,2.6,1.2,2.6,1.2l0.2,0.1c0.3,0.2,0.7,0.3,0.9,0.7C26.2,18.5,25.9,19.8,25.7,20.5z"/> </g>
</svg>